<svg width="16" height="16" viewBox="0 0 16 16" xmlns="http://www.w3.org/2000/svg"><path d="M15.762 15.358c.388-.44.185-.715.185-.715l-2.812-3.136-.074.055-3.164-3.393-.166-.239.943-.972c.444-.458 1.055-1.247 1.258-1.503.13-.147-.296-.569-.296-.569s.037-.037.093-.11c.13.147.351.385.5.495.24.184.647.679.536.459-.111-.22-.37-.532-.37-.532l-.592-.514c.11-.165.24-.403.24-.642-.259 0-.5.129-.647.239l-.518-.605s-.296-.257-.518-.386c-.222-.11.259.294.444.532.13.165.37.385.5.514a1.13 1.13 0 00-.112.092s-.425-.422-.573-.294c-.26.202-1.055.807-1.517 1.247l-1 .917-.24-.165L4.477 2.96l.055-.073L1.387.063S1.11-.157.666.228C.222.613.037.778.037.778s.296.202.462.385c.167.183 5.42 6.84 5.42 6.84v.606s-.684 1.21-1.072 1.742c-.389.55-.814 1.284-1.258 1.743-.444.44-.204.183-.204.183L.814 10.205s-.296.091-.444.22c-.148.128-.37.33-.37.33l2.35 2.567-.648.844.851-.624 2.571 2.366s.204-.22.352-.366c.13-.147.222-.44.222-.44L3.644 12.57s-.277.22.185-.201c.463-.44 1.203-.862 1.758-1.23.555-.366 1.776-1.044 1.776-1.044h.61s6.66 5.281 6.845 5.447c.185.165.389.458.389.458s.166-.202.555-.642zM5.957 8.664c.11-.22.296-.513.832-1.064v.202c0 .073.037.11-.092.257-.13.147-.592.623-.592.623s-.26.202-.148-.018zm1.22-1.082s-.203.073-.184-.073a.543.543 0 01.185-.349c.11-.11.777-.733.777-.733s-.074.146-.056.238c0 .11.056.183-.074.33-.148.128-.647.587-.647.587zm-.998 2.751c-.24.165-.389.165-.555.018-.148-.165-.148-.311.018-.55.167-.238.24-.312.352-.348.092-.037.277.128.351.183.074.073.222.257.185.349-.037.11-.11.183-.351.348zm2.793-3.265c-.407-.421-.518-.238-.74-.421-.13-.11.111-.349.111-.349.185-.202.389-.458.722-.44.444.018.74.312.777.367.055.036.351.33.351.77 0 .33-.259.532-.462.715 0 0-.24.22-.352.11-.185-.238 0-.348-.407-.752zm-1.665 2.953c-.222.11 0-.147 0-.147s.5-.44.63-.568c.129-.128.184-.092.258-.092H8.4c-.574.514-.87.697-1.092.807zm1.184-1.009c-.148.019-.074-.183-.074-.183s.463-.495.61-.642c.149-.128.223-.092.334-.073.11 0 .24-.055.24-.055s-.647.66-.758.77c-.111.092-.204.165-.352.183z" fill="#000" fill-rule="nonzero"/></svg>