<svg viewBox="0 0 20 20" xmlns="http://www.w3.org/2000/svg" fill-rule="evenodd"
     clip-rule="evenodd" stroke-linejoin="round" stroke-miterlimit="2">
    <path fill="none" d="M0 0h20v20H0z" />
    <path d="M6.134 2.191H17.34c1.318 0 2.162 1.053 1.876 2.34l-2.432 10.938c-.286 1.287-1.599 2.34-2.918 2.34H2.66c-1.318 0-2.162-1.053-1.876-2.34L3.216 4.531c.286-1.287 1.599-2.34 2.918-2.34zm1.841 9.145l6.71-5.382c.316-.253.716-.253.899 0l.567.682c.204.254.117.644-.195.878l-8.144 6.532c-.296.253-.696.253-.899 0l-2.514-3.159c-.207-.234-.12-.624.196-.877l.85-.683c.317-.253.716-.253.899 0l1.631 2.009z"
          fill="url(#_Linear1)" stroke="url(#_Linear2)" />
    <defs>
        <linearGradient id="_Linear1" x1="0" y1="0" x2="1" y2="0"
                        gradientUnits="userSpaceOnUse"
                        gradientTransform="matrix(12.5268 15.6185 -19.4732 15.6185 3.737 2.19)">
            <stop offset="0" stop-color="#14248a" />
            <stop offset="1" stop-color="#b43e8f" />
        </linearGradient>
        <linearGradient id="_Linear2" x1="0" y1="0" x2="1" y2=".217"
                        gradientUnits="userSpaceOnUse"
                        gradientTransform="matrix(16 0 -3.47319 15.6185 2 10)">
            <stop offset="0" stop-color="#b43e8f" />
            <stop offset="1" stop-color="#14248a" />
        </linearGradient>
    </defs>
</svg>
