<svg width="17" height="14" viewBox="0 0 17 14"
     xmlns="http://www.w3.org/2000/svg">
    <path d="M3.636 2.957h9.007V14H3.636V2.957zm-.76 0h-.841C.895 2.957 0 3.88 0 4.992v6.973C0 13.105.922 14 2.035 14h.841V2.957zm11.395 0h-.84V14h.84c1.14 0 2.035-.922 2.035-2.035V4.992a2.032 2.032 0 00-2.035-2.035zM11.748 1.71c0-.95-.76-1.709-1.71-1.709H6.214c-.95 0-1.71.76-1.71 1.71v.922h.978v-.923a.73.73 0 01.732-.732h3.826a.73.73 0 01.732.732v.923h.977v-.923z"
          fill="#30262C" fill-rule="nonzero" />
</svg>
