<svg viewBox="0 0 8 8" xmlns="http://www.w3.org/2000/svg" xml:space="preserve"
     style="fill-rule:evenodd;clip-rule:evenodd;stroke-linejoin:round;stroke-miterlimit:2"><path style="fill:none" d="M0 0h7.433v7.439H0z"/>
    <clipPath id="a">
        <path d="M0 0h7.433v7.439H0z" fill="#b43e8f" />
    </clipPath>
    <g clip-path="url(#a)">
        <path d="M1.536.08c-.481.479-.96.961-1.441 1.441-.279.248.123.652.372.375l.179-.178.886.887c-.298.3-.597.598-.897.898-.289.248.103.644.373.373l.534-.533 2.695 2.695a.264.264 0 0 0 .375 0l.173-.173.353.354c.103.102.27.102.373 0l.173-.173 1.287 1.305c.248.261.634-.119.378-.371L6.058 5.672l.174-.174a.264.264 0 0 0 .001-.375L5.88 4.77l.173-.173a.264.264 0 0 0 0-.375L3.359 1.528l.532-.533C4.147.74 3.75.387 3.516.62l-.894.895-.887-.887.174-.174c.266-.265-.134-.613-.373-.374zm-.175.923.887.886c-.115.114-.229.228-.342.343l-.887-.887.342-.342zm1.624.899 1.476 1.477c-.17.145-.435.201-.622.111-.464-.171-.919-.104-1.213.189l-.71-.71 1.069-1.067zm1.854 1.855.653.653-1.068 1.067-1.419-1.42c.097-.072.256-.226.598-.095.341.131.828.156 1.236-.205zm.675 1.396.158.157c-.121.117-.229.229-.347.347l-.158-.158.347-.346z"
              style="fill-rule:nonzero" fill="#b43e8f" />
    </g>
</svg>
